<?xml version="1.0" encoding="UTF-8"?>
<svg version="1.1" viewBox="0 0 139 41.417" xmlSpace="preserve" xmlns="http://www.w3.org/2000/svg" xmlnssvg="http://www.w3.org/2000/svg">
<g transform="translate(-33.417 -46.531)">
<path d="m45.522 59.69c3.8434-1.7973 3.6783-7.691 1.0054-10.354-2.1574-2.1493-5.423-1.9934-8.2373-1.9934-0.99586 0-2.2156-0.18617-3.175 0.11515-2.267 0.71196-1.6835 4.0815-1.4718 5.912 0.62166 5.3769 0.0607 11.136 0.0607 16.551 0 1.6074-0.61572 4.905 0.73156 6.0752 1.2948 1.1246 3.6999 0.87012 5.2657 0.67786 5.1961-0.63818 9.0597-3.3382 9.8249-8.6933 0.30974-2.1687-0.51199-4.5367-1.9404-6.171-0.65913-0.75412-1.6063-1.2188-2.0636-2.1193m-7.7611-0.52917c0-2.2913-0.371-4.8056-0.07486-7.0556 0.08535-0.64842-0.02912-1.5171 0.40259-2.0606 0.83125-1.0465 3.5281-0.1179 4.4341 0.43145 3.1491 1.9095 2.7618 7.4928-0.88126 8.5457-1.3229 0.38236-2.5458 0.16651-3.8806 0.13896m0 15.522v-13.053c1.6618-1e-3 3.3825-0.80299 4.8634 0.25901 3.6485 2.6167 4.2667 9.9608 0.07553 12.466-1.2779 0.76376-3.5339 0.57697-4.9389 0.32773" fill="current"/>
<path d="m55.391 75.995c-2.0055-0.71546-3.3934-2.3123-4.0729-4.6858-0.3133-1.0944-0.38464-2.3365-0.39611-6.8965-0.01323-5.2643 0.01278-5.6289 0.48639-6.8175 1.0266-2.5766 2.851-4.308 5.2482-4.9808 3.8845-1.0902 6.4315 1.1846 6.7467 6.0257 0.23478 3.6061-1.0679 5.8375-3.8663 6.6227-0.73234 0.20549-1.8255 0.37471-2.4293 0.37606-0.60376 0.0013-1.4732 0.0645-1.932 0.14034l-0.83426 0.13789 0.0033 1.1389c0.0065 2.2352 1.0877 5.4543 2.1563 6.4198 0.23538 0.21268 0.72331 0.44575 1.0843 0.51794 1.3319 0.26638 2.7628-1.6303 2.7628-3.6621 0-1.4746 0.28944-2.1562 1.0917-2.5711 0.90598-0.4685 1.4897-0.43259 2.0483 0.12602 1.0571 1.0571-0.04065 4.4885-2.0682 6.4648-1.749 1.7049-4.078 2.3399-6.029 1.6438zm3.465-12.587c0.76394-0.60091 1.0763-1.6506 1.0841-3.6427 0.0076-1.9387-0.15727-2.8301-0.73435-3.9701-0.53559-1.0581-1.2936-1.5549-2.2346-1.4646-0.6482 0.0622-0.81382 0.22089-1.3509 1.2945-0.74372 1.4865-1.2788 4.1413-1.2788 6.3445 0 1.8755-0.09558 1.8037 2.4728 1.8566 1.1694 0.02408 1.5888-0.06181 2.0417-0.41812z" fill="current" stroke-width=".056335"/>
<path d="m66.454 76.547c-0.29634-0.13458-0.47968-0.30032-0.52022-0.4703-0.03442-0.14437-0.07636-5.193-0.0932-11.219-0.02909-10.415-0.02056-10.977 0.17242-11.376 0.34372-0.70992 0.94249-1.0045 2.3126-1.1378 0.83415-0.08113 0.7731-0.13988 0.90995 0.87565 0.03193 0.237 0.07272 0.44484 0.09063 0.46185 0.01791 0.01701 0.47919-0.11885 1.0251-0.30193 1.1779-0.39507 2.6644-0.52478 3.6529-0.31875 1.0164 0.21183 2.0985 0.81416 2.7569 1.5346 0.31717 0.34704 0.62896 0.74574 0.69287 0.88599 0.0639 0.14025 0.15064 0.25501 0.19275 0.25501 0.04211 0 0.47501-0.3926 0.962-0.87244 2.2499-2.2169 5.2006-2.5338 7.3687-0.79139 1.1359 0.91284 2.1795 3.1451 2.6726 5.717 0.38122 1.9881 0.4892 3.7024 0.40331 6.4028-0.04378 1.3765-0.11368 3.8793-0.15533 5.5617-0.072 2.9087-0.08862 3.0853-0.33828 3.5946-0.63984 1.3055-2.423 1.5772-2.9619 0.45128-0.24295-0.50758-0.2478-1.2581-0.04518-6.9939 0.09899-2.8022 0.09884-4.0789-7.94e-4 -5.3949-0.30362-4.0163-1.3934-7.1773-2.7089-7.8576-1.6135-0.83437-3.7442 2.3655-4.2033 6.3125-0.1511 1.299-0.09809 2.696 0.22534 5.939 0.32968 3.3058 0.36044 3.9421 0.23656 4.8943-0.16171 1.243-0.29001 1.6249-0.70858 2.1091-0.31174 0.36063-0.44447 0.4287-0.91752 0.47055-0.4273 0.03781-0.66688-0.0096-1.0536-0.20862-0.92806-0.47751-1.0011-0.94889-0.86459-5.5796 0.19269-6.5354-0.24664-10.298-1.4957-12.809-0.3592-0.7222-0.9653-1.4264-1.444-1.6777-0.3809-0.19996-1.2115-0.2029-1.6828-6e-3 -0.84092 0.35136-1.2618 1.2597-1.6305 3.519-0.33662 2.0624-0.40125 4.6386-0.21349 8.5094 0.19374 3.9942 0.19405 6.7853 7.94e-4 7.6752-0.1854 0.85392-0.60524 1.6328-1.0085 1.871-0.41266 0.24377-1.0582 0.23351-1.6294-0.0259z" fill="current" stroke-width=".028168"/>
<path d="m105.66 75.723c-1.0138-0.37151-2.207-1.6346-2.8797-3.048-1.5496-3.2562-2.5467-8.3032-3.2774-16.588-0.40184-4.556-0.43729-6.0654-0.16145-6.8744 0.2682-0.78664 1.0947-1.4826 1.928-1.6234 0.60112-0.10156 0.71037-0.07025 1.0229 0.29312 0.49254 0.57261 0.66409 1.6204 0.84298 5.1485 0.25183 4.9666 0.91253 9.5237 2.1992 15.169 0.71753 3.1481 1.1558 4.3982 1.7502 4.9926 1.4287 1.4287 2.221-0.20629 3.9439-8.1388 1.5322-7.0541 1.927-9.0256 2.4867-12.417 0.52726-3.1948 0.88433-4.2781 1.6119-4.8903 0.52716-0.44358 1.0425-0.49233 1.6862-0.1595 0.54572 0.28221 0.64049 0.51251 0.64049 1.5566 0 1.4648-0.29716 3.2482-1.5779 9.4698-2.4076 11.696-3.1079 13.98-4.8293 15.751-1.3388 1.3775-3.7066 1.975-5.3867 1.3593z" fill="current" stroke-width=".039835"/>
<path d="m133.94 76.774c-1.1223-0.33794-2.001-1.2235-2.6645-2.6853-0.57325-1.263-1.5746-5.3553-2.7303-11.159-0.49109-2.4658-1.0975-5.262-1.3476-6.2137-0.77866-2.9633-0.58113-4.2102 0.73583-4.6448 1.6864-0.55658 2.5247 0.52156 3.0611 3.9369 0.10191 0.6489 0.53617 2.7372 0.96501 4.6406 1.1858 5.2634 1.8241 8.2264 2.0266 9.4074 0.14365 0.83804 0.23785 1.0595 0.43457 1.0216 0.38794-0.07471 1.5242-4.151 3.8058-13.653 0.99732-4.1535 1.439-4.8224 3.0935-4.6852 1.6842 0.13967 1.8322 0.97771 0.77139 4.3695-2.1352 6.8274-3.5055 11.89-4.2582 15.731-0.49845 2.5439-0.83913 3.249-1.8051 3.7361-0.72322 0.3647-1.339 0.42288-2.0881 0.19731z" fill="current" stroke-width=".039835"/>
<path d="m148.81 76.083c-2.2429-0.73554-3.8578-2.6244-4.5444-5.3156-0.33755-1.323-0.48918-7.9704-0.23164-10.155 0.35654-3.0251 1.0974-4.9235 2.4486-6.2748 1.7417-1.7417 4.4463-2.4718 6.2938-1.6989 3.1075 1.3 4.7231 6.338 3.1414 9.7962-0.95068 2.0786-2.5732 2.9208-6.0852 3.1583-2.8346 0.19172-2.9315 0.3239-2.3311 3.1793 0.59217 2.8164 1.1589 4.1393 2.1435 5.0038 0.5241 0.46017 0.66551 0.50763 1.3239 0.44436 1.5321-0.14722 1.9899-0.8577 2.2852-3.5465 0.21605-1.9676 0.22925-2.011 0.76295-2.504 0.98216-0.90739 2.2738-0.82061 2.7558 0.18515 0.55766 1.1635-0.69167 4.408-2.3236 6.0342-1.1885 1.1843-2.3943 1.7621-3.8534 1.8464-0.70222 0.04058-1.3713-0.01656-1.7858-0.1525zm2.9346-12.49c1.5695-1.1599 1.7877-4.9384 0.44259-7.6632-0.38433-0.77851-1.0202-1.4791-1.5178-1.6723-0.53223-0.20662-1.357 0.10195-1.7508 0.65503-0.69884 0.98143-1.255 3.3679-1.4836 6.3658-0.0528 0.69216-0.13376 1.515-0.17999 1.8285l-0.084 0.57002 1.2296 0.1638c1.6243 0.21637 2.8377 0.1265 3.344-0.24768z" fill="current" stroke-width=".039835"/>
<path d="m160.94 76.922c-0.28734-0.08529-0.57102-0.32117-0.69619-0.57887-0.26137-0.53814-0.43508-4.8667-0.45935-11.447-0.0117-3.1729-0.0933-5.2863-0.24899-6.4497-0.29464-2.2016-0.29544-3.4366-3e-3 -4.003 0.25981-0.50242 1.6364-1.2669 2.2812-1.2669 0.72095 0 1.1053 0.40629 1.1053 1.1684v0.67866l0.66856-0.12522c0.36771-0.06887 1.1981-0.2721 1.8452-0.45162 2.8874-0.80096 4.522-0.10074 5.904 2.5292 1.4464 2.7525 1.4433 5.2814-7e-3 5.8875-0.56493 0.23604-1.2924 0.28916-1.7188 0.12552-0.43036-0.16515-0.81921-1.1634-1.0954-2.8122-0.43146-2.576-1.2096-3.6968-2.5664-3.6968-1.2787 0-2.2492 1.5282-2.5706 4.0475-0.14091 1.1049-0.14243 2.3833-6e-3 5.3485 0.24931 5.4326 0.23132 8.4516-0.0561 9.4196-0.38728 1.3041-1.3172 1.9403-2.3764 1.6259z" fill="current" stroke-width=".039835"/>
<path d="m121.9 46.562c-2.8557 0.54482-3.565 4.6015 0 3.9328 0.93698-0.17577 2.3502-0.66093 2.8166-1.565 0.78969-1.5308-1.6328-2.5936-2.8166-2.3678m-0.35207 6.0341c-1.8143 0.70275-1.1231 3.1365-1.2654 4.6316-0.43321 4.5524-0.55704 9.7416-0.0203 14.288 0.20708 1.7544-0.124 5.3423 2.6961 4.4711 2.2523-0.69586 1.2802-3.6049 1.2374-5.353-0.12012-4.8856-5e-3 -9.7596-3e-3 -14.64 7e-4 -1.7574 0.0252-4.4312-2.6451-3.3968" fill="current"/>
<path d="m36.682 87.948q-0.99226 0-1.6291-0.63682-0.63682-0.63682-0.63682-1.6587 0-0.65163 0.2962-1.1552 0.2962-0.50353 0.79973-0.78492 0.51834-0.28139 1.17-0.28139 0.88859 0 1.5106 0.41467 0.20734 0.13329 0.20734 0.37024 0 0.23696-0.1481 0.37024-0.1481 0.13329-0.34063 0.13329-0.13329 0-0.23696-0.05924-0.54796-0.37024-1.0219-0.32582-0.57758 0.05924-0.9034 0.39986-0.32582 0.32582-0.32582 0.93302 0 0.63682 0.34062 1.0071 0.35544 0.35544 0.99226 0.35544 0.56277 0 1.1255-0.42948 0.11848-0.10367 0.311-0.10367 0.22215 0 0.32582 0.17772 0.11848 0.16291 0.11848 0.31101 0 0.20734-0.19253 0.38506-0.37024 0.32582-0.81454 0.44429-0.44429 0.13329-0.94783 0.13329z" fill="current" stroke-width=".27768"/>
<path d="m42.455 87.948q-1.1107 0-1.7327-0.63682-0.62201-0.63682-0.62201-1.7179 0-0.94783 0.62201-1.555 0.63682-0.6072 1.6291-0.6072 0.96264 0 1.5402 0.56277 0.57758 0.54796 0.57758 1.3625 0 0.32582-0.17772 0.48872-0.16291 0.16291-0.42948 0.16291h-2.5769q-0.1481 0-0.10367 0.16291 0.11848 0.41467 0.47391 0.65163 0.37024 0.22215 0.82935 0.22215 0.34062 0 0.65163-0.08886 0.32582-0.08886 0.56277-0.26658 0.07405-0.05924 0.19253-0.05924 0.16291 0 0.2962 0.1481 0.13329 0.13329 0.13329 0.32582 0 0.08886-0.02962 0.17772-0.02962 0.08886-0.13329 0.17772-0.38506 0.28139-0.82935 0.38505-0.42948 0.10367-0.87378 0.10367zm0.85897-2.7102q0.08886 0 0.08886-0.08886 0-0.34063-0.311-0.59239-0.2962-0.25177-0.74049-0.25177-0.38506 0-0.74049 0.20734-0.34063 0.20734-0.41468 0.54796 0 0 0 0.01481-0.01481 0.05924-0.01481 0.10367 0.01481 0.04443 0.13329 0.04443z" fill="current" stroke-width=".27768"/>
<path d="m50.02 87.948q-0.19253 0-0.35544-0.11848-0.1481-0.11848-0.1481-0.34063v-1.866q0-0.65163-0.2962-0.96264-0.28139-0.311-0.7553-0.311-0.6072 0-0.88859 0.39986-0.26658 0.38506-0.26658 0.85897v1.8808q0 0.22215-0.16291 0.34063-0.1481 0.11848-0.34063 0.11848-0.19253 0-0.35544-0.11848-0.1481-0.11848-0.1481-0.34063v-3.4803q0-0.25177 0.1481-0.37024 0.16291-0.13329 0.35544-0.13329 0.19253 0 0.34063 0.13329 0.16291 0.11848 0.16291 0.37024 0.25177-0.25177 0.65163-0.41467 0.39986-0.16291 0.7553-0.16291 0.82935 0 1.3181 0.53315 0.48872 0.53315 0.48872 1.5698v1.9549q0 0.22215-0.16291 0.34063-0.16291 0.11848-0.34062 0.11848z" fill="current" stroke-width=".27768"/>
<path d="m54.253 87.948q-0.57758 0-0.94783-0.35544t-0.37024-1.0663v-1.8808q0-0.1481-0.1481-0.1481h-0.26658q-0.19253 0-0.32582-0.11848-0.13329-0.13329-0.13329-0.32582 0-0.20734 0.13329-0.34063t0.32582-0.13329h0.26658q0.1481 0 0.1481-0.1481v-1.244q0-0.20734 0.13329-0.32582 0.1481-0.13329 0.35544-0.13329 0.22215 0 0.35544 0.13329 0.1481 0.11848 0.1481 0.32582v1.244q0 0.1481 0.1481 0.1481h0.79973q0.17772 0 0.31101 0.13329 0.13329 0.13329 0.13329 0.34063 0 0.19253-0.13329 0.32582-0.11848 0.11848-0.32582 0.11848h-0.78492q-0.1481 0-0.1481 0.1481v1.7476q0 0.62201 0.50353 0.62201 0.1481 0 0.31101-0.04443 0.16291-0.04443 0.22215-0.04443 0.20734 0 0.311 0.13329 0.11848 0.13329 0.11848 0.31101 0 0.13329-0.07405 0.26658-0.07405 0.11848-0.23696 0.17772-0.16291 0.05924-0.41467 0.08886-0.23696 0.04443-0.41468 0.04443z" fill="current" stroke-width=".27768"/>
<path d="m58.085 85.608v1.8808q0 0.22215-0.16291 0.34063-0.1481 0.11848-0.34063 0.11848-0.19253 0-0.35544-0.11848-0.1481-0.11848-0.1481-0.34063v-3.4803q0-0.25177 0.1481-0.37024 0.16291-0.13329 0.35544-0.13329 0.19253 0 0.34063 0.13329 0.16291 0.11848 0.16291 0.37024v0.05924q0.20734-0.28139 0.53315-0.4591 0.34063-0.17772 0.71087-0.17772 0.17772 0 0.35544 0.04443 0.17772 0.04443 0.26658 0.17772 0.08886 0.13329 0.08886 0.2962 0 0.19253-0.13329 0.35544-0.11848 0.1481-0.35544 0.1481-0.10367 0-0.22215-0.02962-0.10367-0.02962-0.26658-0.02962-0.42948 0-0.71087 0.32582-0.26658 0.32582-0.26658 0.88859z" fill="current" stroke-width=".27768"/>
<path d="m63.503 87.948q-0.65163 0-1.1848-0.2962-0.51834-0.2962-0.81454-0.81454-0.2962-0.53315-0.2962-1.1848 0-0.63682 0.2962-1.1404 0.2962-0.50353 0.81454-0.78492 0.53315-0.2962 1.1848-0.2962t1.17 0.2962q0.51834 0.28139 0.81454 0.78492 0.31101 0.50353 0.31101 1.1404 0 0.65163-0.31101 1.1848-0.2962 0.51834-0.81454 0.81454t-1.17 0.2962zm0-0.91821q0.57758 0 0.93302-0.37024 0.35544-0.38505 0.35544-1.0071 0-0.59239-0.35544-0.94783t-0.93302-0.35544q-0.59239 0-0.94783 0.35544-0.34063 0.35544-0.34063 0.94783 0 0.62201 0.34063 1.0071 0.35544 0.37024 0.94783 0.37024z" fill="current" stroke-width=".27768"/>
<path d="m73.183 87.948q-1.1107 0-1.7327-0.63682-0.62201-0.63682-0.62201-1.7179 0-0.94783 0.62201-1.555 0.63682-0.6072 1.6291-0.6072 0.96264 0 1.5402 0.56277 0.57758 0.54796 0.57758 1.3625 0 0.32582-0.17772 0.48872-0.16291 0.16291-0.42948 0.16291h-2.5769q-0.1481 0-0.10367 0.16291 0.11848 0.41467 0.47391 0.65163 0.37024 0.22215 0.82935 0.22215 0.34062 0 0.65163-0.08886 0.32582-0.08886 0.56277-0.26658 0.07405-0.05924 0.19253-0.05924 0.16291 0 0.2962 0.1481 0.13329 0.13329 0.13329 0.32582 0 0.08886-0.02962 0.17772-0.02962 0.08886-0.13329 0.17772-0.38505 0.28139-0.82935 0.38505-0.42948 0.10367-0.87378 0.10367zm0.85897-2.7102q0.08886 0 0.08886-0.08886 0-0.34063-0.31101-0.59239-0.2962-0.25177-0.74049-0.25177-0.38506 0-0.74049 0.20734-0.34063 0.20734-0.41468 0.54796 0 0 0 0.01481-0.01481 0.05924-0.01481 0.10367 0.01481 0.04443 0.13329 0.04443z" fill="current" stroke-width=".27768"/>
<path d="m79.089 87.948q-0.63682 0-1.1404-0.2962-0.50353-0.2962-0.78492-0.81454-0.28139-0.53315-0.28139-1.1848 0-0.63682 0.28139-1.1404 0.28139-0.50353 0.78492-0.78492 0.50353-0.2962 1.1404-0.2962 0.41467 0 0.74049 0.13329t0.56277 0.37024v-2.0734q0-0.25177 0.1481-0.37024 0.16291-0.13329 0.35544-0.13329 0.19253 0 0.34062 0.13329 0.16291 0.11848 0.16291 0.37024v5.6277q0 0.22215-0.16291 0.34063-0.1481 0.11848-0.34062 0.11848-0.19253 0-0.35544-0.11848-0.1481-0.11848-0.1481-0.34063v-0.05924q-0.23696 0.23696-0.56277 0.37024-0.32582 0.1481-0.74049 0.1481zm0.08886-0.91821q0.56277 0 0.88859-0.37024 0.32582-0.38505 0.32582-1.0071 0-0.59239-0.32582-0.94783-0.32582-0.35544-0.88859-0.35544-0.57758 0-0.93302 0.35544-0.35544 0.35544-0.35544 0.94783 0 0.62201 0.35544 1.0071 0.35544 0.37024 0.93302 0.37024z" fill="current" stroke-width=".27768"/>
<path d="m86.52 83.92q0-0.20734 0.13329-0.34062 0.1481-0.1481 0.37024-0.1481 0.20734 0 0.35544 0.1481 0.1481 0.13329 0.1481 0.34062v2.0882q0 0.66644-0.2962 1.0959-0.2962 0.42948-0.77011 0.63682t-1.0071 0.20734q-0.53315 0-1.0071-0.20734-0.47391-0.20734-0.77011-0.63682-0.2962-0.42948-0.2962-1.0959v-2.0882q0-0.20734 0.13329-0.34062 0.1481-0.1481 0.37024-0.1481 0.20734 0 0.35544 0.1481 0.1481 0.13329 0.1481 0.34062v2.0882q0 0.54796 0.32582 0.78492 0.32582 0.23696 0.74049 0.23696 0.42948 0 0.74049-0.23696 0.32582-0.23696 0.32582-0.78492z" fill="current" stroke-width=".27768"/>
<path d="m91.553 87.948q-0.99226 0-1.6291-0.63682-0.63682-0.63682-0.63682-1.6587 0-0.65163 0.2962-1.1552 0.2962-0.50353 0.79973-0.78492 0.51834-0.28139 1.17-0.28139 0.88859 0 1.5106 0.41467 0.20734 0.13329 0.20734 0.37024 0 0.23696-0.1481 0.37024-0.1481 0.13329-0.34063 0.13329-0.13329 0-0.23696-0.05924-0.54796-0.37024-1.0219-0.32582-0.57758 0.05924-0.9034 0.39986-0.32582 0.32582-0.32582 0.93302 0 0.63682 0.34062 1.0071 0.35544 0.35544 0.99226 0.35544 0.56277 0 1.1255-0.42948 0.11848-0.10367 0.31101-0.10367 0.22215 0 0.32582 0.17772 0.11848 0.16291 0.11848 0.31101 0 0.20734-0.19253 0.38506-0.37024 0.32582-0.81454 0.44429-0.44429 0.13329-0.94783 0.13329z" fill="current" stroke-width=".27768"/>
<path d="m97.178 87.948q-0.63682 0-1.1404-0.2962t-0.78492-0.81454q-0.28139-0.53315-0.28139-1.1848 0-0.63682 0.28139-1.1404 0.28139-0.50353 0.78492-0.78492 0.50353-0.2962 1.1404-0.2962 0.41467 0 0.74049 0.1481 0.32582 0.13329 0.56277 0.35544 0.02962-0.20734 0.17772-0.31101 0.1481-0.11848 0.32582-0.11848 0.19253 0 0.34063 0.13329 0.16291 0.11848 0.16291 0.37024v3.4803q0 0.22215-0.16291 0.34063-0.1481 0.11848-0.34063 0.11848-0.19253 0-0.35544-0.11848-0.1481-0.11848-0.1481-0.34063v-0.05924q-0.23696 0.23696-0.56277 0.37024-0.32582 0.1481-0.74049 0.1481zm0.08886-0.91821q0.56277 0 0.88859-0.37024 0.32582-0.38505 0.32582-1.0071 0-0.59239-0.32582-0.94783-0.32582-0.35544-0.88859-0.35544-0.57758 0-0.93302 0.35544t-0.35544 0.94783q0 0.62201 0.35544 1.0071 0.35544 0.37024 0.93302 0.37024z" fill="current" stroke-width=".27768"/>
<path d="m103.51 87.948q-0.99226 0-1.6291-0.63682-0.63682-0.63682-0.63682-1.6587 0-0.65163 0.2962-1.1552 0.29619-0.50353 0.79972-0.78492 0.51835-0.28139 1.17-0.28139 0.88859 0 1.5106 0.41467 0.20734 0.13329 0.20734 0.37024 0 0.23696-0.1481 0.37024-0.1481 0.13329-0.34063 0.13329-0.13329 0-0.23695-0.05924-0.54797-0.37024-1.0219-0.32582-0.57758 0.05924-0.9034 0.39986-0.32581 0.32582-0.32581 0.93302 0 0.63682 0.34062 1.0071 0.35544 0.35544 0.99226 0.35544 0.56277 0 1.1255-0.42948 0.11848-0.10367 0.31101-0.10367 0.22215 0 0.32581 0.17772 0.11848 0.16291 0.11848 0.31101 0 0.20734-0.19253 0.38506-0.37024 0.32582-0.81453 0.44429-0.4443 0.13329-0.94783 0.13329z" fill="current" stroke-width=".27768"/>
<path d="m107.75 87.948q-0.19253 0-0.35544-0.11848-0.1481-0.11848-0.1481-0.34063v-3.5544q0-0.25177 0.1481-0.37024 0.16291-0.13329 0.35544-0.13329 0.19252 0 0.34062 0.13329 0.16291 0.11848 0.16291 0.37024v3.5544q0 0.22215-0.16291 0.34063-0.1481 0.11848-0.34062 0.11848zm0.0148-5.3315q-0.28139 0-0.48873-0.17772-0.19252-0.19253-0.19252-0.4591 0-0.25177 0.19252-0.42948 0.20734-0.19253 0.48873-0.19253 0.26657 0 0.4591 0.19253 0.19253 0.17772 0.19253 0.42948 0 0.26658-0.19253 0.4591-0.19253 0.17772-0.4591 0.17772z" fill="current" stroke-width=".27768"/>
<path d="m112.39 87.948q-0.65163 0-1.1848-0.2962-0.51834-0.2962-0.81454-0.81454-0.29619-0.53315-0.29619-1.1848 0-0.63682 0.29619-1.1404 0.2962-0.50353 0.81454-0.78492 0.53315-0.2962 1.1848-0.2962 0.65164 0 1.17 0.2962 0.51834 0.28139 0.81454 0.78492 0.311 0.50353 0.311 1.1404 0 0.65163-0.311 1.1848-0.2962 0.51834-0.81454 0.81454t-1.17 0.2962zm0-0.91821q0.57759 0 0.93302-0.37024 0.35544-0.38505 0.35544-1.0071 0-0.59239-0.35544-0.94783-0.35543-0.35544-0.93302-0.35544-0.59239 0-0.94782 0.35544-0.34063 0.35544-0.34063 0.94783 0 0.62201 0.34063 1.0071 0.35543 0.37024 0.94782 0.37024z" fill="current" stroke-width=".27768"/>
<path d="m120.24 87.948q-0.19252 0-0.35543-0.11848-0.1481-0.11848-0.1481-0.34063v-1.866q0-0.65163-0.29619-0.96264-0.28139-0.311-0.7553-0.311-0.60721 0-0.88859 0.39986-0.26658 0.38506-0.26658 0.85897v1.8808q0 0.22215-0.16291 0.34063-0.14809 0.11848-0.34062 0.11848t-0.35544-0.11848q-0.1481-0.11848-0.1481-0.34063v-3.4803q0-0.25177 0.1481-0.37024 0.16291-0.13329 0.35544-0.13329t0.34062 0.13329q0.16291 0.11848 0.16291 0.37024 0.25177-0.25177 0.65163-0.41467 0.39987-0.16291 0.7553-0.16291 0.82935 0 1.3181 0.53315 0.48873 0.53315 0.48873 1.5698v1.9549q0 0.22215-0.16291 0.34063-0.16291 0.11848-0.34063 0.11848z" fill="current" stroke-width=".27768"/>
<path d="m124.71 87.948q-0.63682 0-1.1404-0.2962t-0.78492-0.81454q-0.28139-0.53315-0.28139-1.1848 0-0.63682 0.28139-1.1404 0.28139-0.50353 0.78492-0.78492 0.50353-0.2962 1.1404-0.2962 0.41468 0 0.74049 0.1481 0.32582 0.13329 0.56278 0.35544 0.0296-0.20734 0.17771-0.31101 0.1481-0.11848 0.32582-0.11848 0.19253 0 0.34062 0.13329 0.16291 0.11848 0.16291 0.37024v3.4803q0 0.22215-0.16291 0.34063-0.14809 0.11848-0.34062 0.11848t-0.35544-0.11848q-0.14809-0.11848-0.14809-0.34063v-0.05924q-0.23696 0.23696-0.56278 0.37024-0.32581 0.1481-0.74049 0.1481zm0.0889-0.91821q0.56278 0 0.88859-0.37024 0.32582-0.38505 0.32582-1.0071 0-0.59239-0.32582-0.94783-0.32581-0.35544-0.88859-0.35544-0.57758 0-0.93301 0.35544-0.35544 0.35544-0.35544 0.94783 0 0.62201 0.35544 1.0071 0.35543 0.37024 0.93301 0.37024z" fill="current" stroke-width=".27768"/>
<path d="m129.58 87.948q-0.19253 0-0.35544-0.11848-0.1481-0.11848-0.1481-0.34063v-5.6277q0-0.25177 0.1481-0.37024 0.16291-0.13329 0.35544-0.13329t0.34062 0.13329q0.16291 0.11848 0.16291 0.37024v5.6277q0 0.22215-0.16291 0.34063-0.14809 0.11848-0.34062 0.11848z" fill="current" stroke-width=".27768"/>
<path d="m136.25 87.948q-0.19253 0-0.35544-0.11848-0.14809-0.11848-0.14809-0.34063v-3.5544q0-0.25177 0.14809-0.37024 0.16291-0.13329 0.35544-0.13329t0.34063 0.13329q0.1629 0.11848 0.1629 0.37024v3.5544q0 0.22215-0.1629 0.34063-0.1481 0.11848-0.34063 0.11848zm0.0148-5.3315q-0.28139 0-0.48872-0.17772-0.19253-0.19253-0.19253-0.4591 0-0.25177 0.19253-0.42948 0.20733-0.19253 0.48872-0.19253 0.26658 0 0.4591 0.19253 0.19253 0.17772 0.19253 0.42948 0 0.26658-0.19253 0.4591-0.19252 0.17772-0.4591 0.17772z" fill="current" stroke-width=".27768"/>
<path d="m142.62 87.948q-0.19252 0-0.35543-0.11848-0.1481-0.11848-0.1481-0.34063v-1.866q0-0.65163-0.2962-0.96264-0.28138-0.311-0.7553-0.311-0.6072 0-0.88858 0.39986-0.26658 0.38506-0.26658 0.85897v1.8808q0 0.22215-0.16291 0.34063-0.1481 0.11848-0.34062 0.11848-0.19253 0-0.35544-0.11848-0.1481-0.11848-0.1481-0.34063v-3.4803q0-0.25177 0.1481-0.37024 0.16291-0.13329 0.35544-0.13329 0.19252 0 0.34062 0.13329 0.16291 0.11848 0.16291 0.37024 0.25177-0.25177 0.65163-0.41467 0.39987-0.16291 0.7553-0.16291 0.82935 0 1.3181 0.53315 0.48873 0.53315 0.48873 1.5698v1.9549q0 0.22215-0.16291 0.34063-0.16291 0.11848-0.34063 0.11848z" fill="current" stroke-width=".27768"/>
<path d="m146.09 87.948q-0.22215 0-0.35544-0.13329t-0.13329-0.34063v-2.8287q0-0.1481-0.1481-0.1481h-0.34062q-0.19253 0-0.32582-0.11848-0.13329-0.13329-0.13329-0.32582 0-0.20734 0.13329-0.34063t0.32582-0.13329h0.34062q0.1481 0 0.1481-0.1481v-0.38506q0-0.74049 0.38506-1.17 0.39986-0.44429 1.1255-0.44429 0.16291 0 0.32582 0.04443 0.17771 0.02962 0.26657 0.05924 0.28139 0.10367 0.28139 0.41467 0 0.23696-0.1481 0.37024-0.13329 0.11848-0.32581 0.11848-0.10367 0-0.19253-0.02962-0.0889-0.02962-0.25177-0.02962-0.25176 0-0.35543 0.17772-0.10367 0.17772-0.10367 0.51834v0.35544q0 0.1481 0.1481 0.1481h0.63682q0.17772 0 0.311 0.13329 0.13329 0.13329 0.13329 0.34063 0 0.19253-0.13329 0.32582-0.11847 0.11848-0.32581 0.11848h-0.62201q-0.1481 0-0.1481 0.1481v2.8287q0 0.20734-0.1481 0.34063t-0.37024 0.13329z" fill="current" stroke-width=".27768"/>
<path d="m151.51 87.948q-0.63682 0-1.1404-0.2962-0.50354-0.2962-0.78492-0.81454-0.28139-0.53315-0.28139-1.1848 0-0.63682 0.28139-1.1404 0.28138-0.50353 0.78492-0.78492 0.50353-0.2962 1.1404-0.2962 0.41467 0 0.74049 0.1481 0.32582 0.13329 0.56277 0.35544 0.0296-0.20734 0.17772-0.31101 0.1481-0.11848 0.32582-0.11848 0.19252 0 0.34062 0.13329 0.16291 0.11848 0.16291 0.37024v3.4803q0 0.22215-0.16291 0.34063-0.1481 0.11848-0.34062 0.11848-0.19253 0-0.35544-0.11848-0.1481-0.11848-0.1481-0.34063v-0.05924q-0.23695 0.23696-0.56277 0.37024-0.32582 0.1481-0.74049 0.1481zm0.0889-0.91821q0.56277 0 0.88859-0.37024 0.32581-0.38505 0.32581-1.0071 0-0.59239-0.32581-0.94783-0.32582-0.35544-0.88859-0.35544-0.57758 0-0.93302 0.35544-0.35543 0.35544-0.35543 0.94783 0 0.62201 0.35543 1.0071 0.35544 0.37024 0.93302 0.37024z" fill="current" stroke-width=".27768"/>
<path d="m159.6 87.948q-0.19253 0-0.35543-0.11848-0.1481-0.11848-0.1481-0.34063v-1.866q0-0.65163-0.2962-0.96264-0.28138-0.311-0.7553-0.311-0.6072 0-0.88859 0.39986-0.26657 0.38506-0.26657 0.85897v1.8808q0 0.22215-0.16291 0.34063-0.1481 0.11848-0.34063 0.11848-0.19252 0-0.35543-0.11848-0.1481-0.11848-0.1481-0.34063v-3.4803q0-0.25177 0.1481-0.37024 0.16291-0.13329 0.35543-0.13329 0.19253 0 0.34063 0.13329 0.16291 0.11848 0.16291 0.37024 0.25176-0.25177 0.65163-0.41467 0.39986-0.16291 0.7553-0.16291 0.82935 0 1.3181 0.53315t0.48872 1.5698v1.9549q0 0.22215-0.1629 0.34063-0.16291 0.11848-0.34063 0.11848z" fill="current" stroke-width=".27768"/>
<path d="m163.83 87.948q-0.57758 0-0.94783-0.35544-0.37024-0.35544-0.37024-1.0663v-1.8808q0-0.1481-0.1481-0.1481h-0.26658q-0.19252 0-0.32581-0.11848-0.13329-0.13329-0.13329-0.32582 0-0.20734 0.13329-0.34063t0.32581-0.13329h0.26658q0.1481 0 0.1481-0.1481v-1.244q0-0.20734 0.13329-0.32582 0.14809-0.13329 0.35543-0.13329 0.22215 0 0.35544 0.13329 0.1481 0.11848 0.1481 0.32582v1.244q0 0.1481 0.14809 0.1481h0.79973q0.17772 0 0.31101 0.13329t0.13329 0.34063q0 0.19253-0.13329 0.32582-0.11848 0.11848-0.32582 0.11848h-0.78492q-0.14809 0-0.14809 0.1481v1.7476q0 0.62201 0.50353 0.62201 0.1481 0 0.311-0.04443 0.16291-0.04443 0.22215-0.04443 0.20734 0 0.31101 0.13329 0.11848 0.13329 0.11848 0.31101 0 0.13329-0.074 0.26658-0.074 0.11848-0.23696 0.17772-0.16291 0.05924-0.41467 0.08886-0.23696 0.04443-0.41468 0.04443z" fill="current" stroke-width=".27768"/>
<path d="m167.17 87.948q-0.19252 0-0.35543-0.11848-0.1481-0.11848-0.1481-0.34063v-3.5544q0-0.25177 0.1481-0.37024 0.16291-0.13329 0.35543-0.13329 0.19253 0 0.34063 0.13329 0.16291 0.11848 0.16291 0.37024v3.5544q0 0.22215-0.16291 0.34063-0.1481 0.11848-0.34063 0.11848zm0.0148-5.3315q-0.28138 0-0.48872-0.17772-0.19253-0.19253-0.19253-0.4591 0-0.25177 0.19253-0.42948 0.20734-0.19253 0.48872-0.19253 0.26658 0 0.45911 0.19253 0.19252 0.17772 0.19252 0.42948 0 0.26658-0.19252 0.4591-0.19253 0.17772-0.45911 0.17772z" fill="current" stroke-width=".27768"/>
<path d="m170.32 87.948q-0.19253 0-0.35544-0.11848-0.14809-0.11848-0.14809-0.34063v-5.6277q0-0.25177 0.14809-0.37024 0.16291-0.13329 0.35544-0.13329t0.34062 0.13329q0.16291 0.11848 0.16291 0.37024v5.6277q0 0.22215-0.16291 0.34063-0.14809 0.11848-0.34062 0.11848z" fill="current" stroke-width=".27768"/>
</g>
</svg>
