<?xml version="1.0" encoding="UTF-8" standalone="no"?>
<!-- Created with Inkscape (http://www.inkscape.org/) -->

<svg
   viewBox="0 0 139.00327 41.41671"
   version="1.1"
   id="svg5"
   xml:space="preserve"
   xmlns="http://www.w3.org/2000/svg"
   xmlns:svg="http://www.w3.org/2000/svg"><defs
     id="defs2" /><g
     id="layer2"
     transform="translate(-33.416727,-46.531391)"><g
       id="g351"><path
         style="display:inline;fill:#c8528e;fill-opacity:1;stroke:none;stroke-width:0.176389"
         d="m 45.521765,59.690038 c 3.843425,-1.7973 3.678308,-7.69098 1.005381,-10.35387 -2.157394,-2.1493 -5.42297,-1.99336 -8.237325,-1.99336 -0.995856,0 -2.215585,-0.18617 -3.174999,0.11515 -2.267005,0.71196 -1.683458,4.0815 -1.471807,5.91203 0.621665,5.37686 0.0607,11.13581 0.0607,16.5506 0,1.60743 -0.615719,4.90502 0.731555,6.07519 1.294782,1.12465 3.699862,0.87012 5.265666,0.67786 5.196116,-0.63818 9.059721,-3.33816 9.82486,-8.69333 0.309739,-2.1687 -0.511986,-4.53672 -1.940436,-6.17101 -0.65913,-0.75412 -1.606338,-1.21882 -2.063591,-2.11926 m -7.761114,-0.52917 c 0,-2.29126 -0.370999,-4.80559 -0.07486,-7.05556 0.08535,-0.64842 -0.02912,-1.51708 0.40259,-2.06059 0.83125,-1.04651 3.528095,-0.1179 4.434081,0.43145 3.149124,1.90946 2.761774,7.49279 -0.881256,8.54574 -1.322899,0.38236 -2.545768,0.16651 -3.880555,0.13896 m 0,15.52222 v -13.05278 c 1.661847,-10e-4 3.382538,-0.80299 4.863358,0.25901 3.648498,2.61666 4.266688,9.96079 0.07553,12.46604 -1.277867,0.76376 -3.533933,0.57697 -4.938888,0.32773"
         id="path402855" /><path
         style="display:inline;fill:#78bcc6;fill-opacity:1;stroke-width:0.0563353"
         d="m 55.39139,75.995375 c -2.005459,-0.715463 -3.393394,-2.312278 -4.072871,-4.685819 -0.313298,-1.094409 -0.384641,-2.336503 -0.39611,-6.896539 -0.01323,-5.264316 0.01278,-5.628875 0.486386,-6.817521 1.026649,-2.576586 2.851047,-4.308033 5.248209,-4.980813 3.884512,-1.090213 6.431497,1.184574 6.746684,6.025655 0.234783,3.606083 -1.067887,5.837465 -3.866266,6.622651 -0.732343,0.205486 -1.825522,0.374711 -2.429283,0.376057 -0.603763,0.0013 -1.473168,0.0645 -1.932011,0.140343 l -0.834258,0.137893 0.0033,1.138854 c 0.0065,2.235168 1.087724,5.454327 2.156336,6.41985 0.235381,0.212675 0.723307,0.445749 1.084284,0.517943 1.331875,0.266375 2.762755,-1.63031 2.762755,-3.662138 0,-1.474565 0.289435,-2.156195 1.091739,-2.571083 0.905979,-0.4685 1.489658,-0.432588 2.048264,0.126019 1.057088,1.057084 -0.04065,4.488457 -2.068173,6.464831 -1.748973,1.704851 -4.07797,2.339859 -6.028973,1.643817 z m 3.464989,-12.586946 c 0.763939,-0.600914 1.076336,-1.650558 1.084149,-3.642709 0.0076,-1.938716 -0.157271,-2.830087 -0.734351,-3.970121 -0.535594,-1.058079 -1.293556,-1.554863 -2.234552,-1.464572 -0.6482,0.0622 -0.813816,0.22089 -1.350936,1.294466 -0.74372,1.486525 -1.278819,4.141251 -1.278819,6.344462 0,1.875486 -0.09558,1.803721 2.472775,1.856595 1.169379,0.02408 1.588759,-0.06181 2.041734,-0.418121 z"
         id="path403712" /><path
         style="display:inline;fill:#78bcc6;fill-opacity:1;stroke-width:0.0281678"
         d="m 55.507265,75.957928 c -1.997829,-0.701037 -3.580392,-2.527437 -4.172352,-4.815223 -0.268494,-1.037656 -0.413433,-4.538673 -0.35459,-8.565055 0.05898,-4.035525 0.07601,-4.153905 0.816155,-5.67296 0.843124,-1.730404 2.027402,-2.940378 3.657738,-3.737104 3.011654,-1.471758 5.789469,-0.720905 7.035543,1.901735 0.945552,1.990135 1.157796,5.029911 0.484873,6.944492 -0.745802,2.12194 -2.318703,3.176185 -5.24011,3.512209 -0.52002,0.05981 -1.19167,0.109161 -1.492554,0.109664 -0.300882,5.29e-4 -0.871014,0.05733 -1.26696,0.126278 l -0.7199,0.125365 0.06285,1.348491 c 0.09569,2.053148 0.785294,4.397343 1.683208,5.721813 0.377423,0.556723 1.30775,1.132787 1.829416,1.132787 0.478986,0 1.229696,-0.446424 1.628074,-0.968163 0.567359,-0.743048 0.836237,-1.580814 0.947769,-2.953044 0.119542,-1.470792 0.337701,-1.932432 1.112507,-2.354136 1.380815,-0.751533 2.468256,0.06112 2.295353,1.71535 -0.148138,1.417328 -1.060125,3.28251 -2.201664,4.502819 -1.255797,1.342451 -2.7187,2.054918 -4.378656,2.132502 -0.837604,0.03915 -1.119616,0.0052 -1.726702,-0.20782 z m 2.859614,-12.219394 c 0.732901,-0.276908 1.261414,-1.055873 1.483995,-2.187218 0.20946,-1.064673 0.08815,-4.030342 -0.197123,-4.818827 -0.469617,-1.298033 -1.039537,-2.062755 -1.731809,-2.323751 -0.419513,-0.158163 -1.181793,-0.146756 -1.512059,0.02262 -0.601888,0.308687 -1.482386,2.494097 -1.848012,4.586782 -0.208867,1.195462 -0.338867,3.521186 -0.229428,4.104537 0.114853,0.612222 0.461688,0.724487 2.254684,0.729811 0.806641,0.0024 1.607527,-0.04889 1.779752,-0.113959 z"
         id="path403714" /><path
         style="display:inline;fill:#b6ca56;fill-opacity:1;stroke-width:0.0281678"
         d="M 66.453744,76.547343 C 66.1574,76.412766 65.974062,76.24702 65.933528,76.077039 c -0.03442,-0.144368 -0.07636,-5.192954 -0.0932,-11.219082 -0.02909,-10.414831 -0.02056,-10.977333 0.172419,-11.375917 0.343722,-0.709925 0.94249,-1.004506 2.31263,-1.137766 0.834149,-0.08113 0.773104,-0.139875 0.90995,0.875651 0.03193,0.237001 0.07272,0.444836 0.09063,0.461852 0.01791,0.01701 0.479189,-0.118851 1.025062,-0.301927 1.177949,-0.395068 2.66442,-0.524777 3.652943,-0.318754 1.016392,0.211831 2.098477,0.814165 2.756948,1.534636 0.317174,0.347041 0.628965,0.745736 0.69287,0.885989 0.0639,0.140253 0.150643,0.255008 0.192754,0.255008 0.04211,0 0.475012,-0.392599 0.961998,-0.872442 2.249871,-2.216864 5.200581,-2.533766 7.368733,-0.79139 1.135912,0.912844 2.179479,3.145134 2.672636,5.717035 0.381217,1.988111 0.489201,3.70242 0.403312,6.402837 -0.04378,1.376529 -0.113678,3.879305 -0.155326,5.561727 -0.072,2.908697 -0.08862,3.085258 -0.338278,3.59465 -0.639844,1.305496 -2.422969,1.577181 -2.961865,0.451284 -0.242948,-0.507582 -0.247795,-1.258078 -0.04518,-6.993882 0.09899,-2.802202 0.09884,-4.078944 -7.94e-4,-5.394873 -0.303622,-4.016319 -1.393354,-7.177272 -2.708872,-7.857553 -1.613504,-0.834374 -3.744201,2.365512 -4.203314,6.312545 -0.151096,1.298959 -0.09809,2.69597 0.225338,5.939002 0.329681,3.305775 0.360439,3.94212 0.236558,4.894318 -0.161713,1.242986 -0.29001,1.624851 -0.70858,2.109068 -0.311738,0.360627 -0.444469,0.428699 -0.917522,0.470553 -0.427303,0.03781 -0.666875,-0.0096 -1.053614,-0.208616 -0.92806,-0.477512 -1.001104,-0.948891 -0.864587,-5.579597 0.192694,-6.535427 -0.246641,-10.297847 -1.495697,-12.809174 -0.359201,-0.722199 -0.965303,-1.426412 -1.44395,-1.677686 -0.380905,-0.199959 -1.211453,-0.202901 -1.682809,-0.006 -0.840917,0.351358 -1.261779,1.259657 -1.630539,3.519011 -0.336622,2.062445 -0.401254,4.638556 -0.21349,8.509439 0.193744,3.994208 0.194051,6.785335 7.94e-4,7.675179 -0.185402,0.853916 -0.605237,1.632812 -1.00851,1.87103 -0.412665,0.243766 -1.058198,0.233508 -1.629415,-0.0259 z"
         id="path404268" /><path
         style="display:inline;fill:#e7a746;fill-opacity:1;stroke-width:0.0398351"
         d="m 105.66355,75.723206 c -1.01376,-0.371507 -2.20705,-1.634556 -2.87968,-3.048003 -1.54955,-3.256221 -2.54672,-8.30317 -3.277443,-16.587962 -0.401843,-4.556024 -0.43729,-6.065363 -0.161451,-6.87442 0.2682,-0.786638 1.094744,-1.482608 1.927964,-1.62338 0.60112,-0.101557 0.71037,-0.07025 1.02293,0.293116 0.49254,0.572612 0.66409,1.62037 0.84298,5.148506 0.25183,4.9666 0.91253,9.523741 2.19923,15.168996 0.71753,3.148124 1.15576,4.398225 1.75017,4.992638 1.4287,1.428697 2.22098,-0.206291 3.94393,-8.138824 1.53215,-7.054112 1.92696,-9.025554 2.48673,-12.417325 0.52726,-3.194785 0.88433,-4.2781 1.61193,-4.89033 0.52716,-0.44358 1.04252,-0.492329 1.68615,-0.159499 0.54572,0.282207 0.64049,0.512506 0.64049,1.556578 0,1.464807 -0.29716,3.248173 -1.5779,9.46975 -2.40761,11.695654 -3.10791,13.979707 -4.82929,15.750881 -1.33875,1.377465 -3.70665,1.974977 -5.38674,1.359278 z"
         id="path404477" /><path
         style="display:inline;fill:#78bcc6;fill-opacity:1;stroke-width:0.0398351"
         d="m 133.93784,76.774091 c -1.12234,-0.337939 -2.00097,-1.223454 -2.66448,-2.685346 -0.57325,-1.263036 -1.57456,-5.35527 -2.73034,-11.158548 -0.49109,-2.465824 -1.09751,-5.261996 -1.34759,-6.213718 -0.77866,-2.963281 -0.58113,-4.210185 0.73583,-4.644821 1.68644,-0.556575 2.52474,0.521565 3.06114,3.936928 0.10191,0.648901 0.53617,2.737183 0.96501,4.640625 1.18584,5.263428 1.82414,8.226417 2.02658,9.407385 0.14365,0.838038 0.23785,1.059502 0.43457,1.021619 0.38794,-0.07471 1.52421,-4.150989 3.80575,-13.652843 0.99732,-4.153506 1.43896,-4.822378 3.09354,-4.685168 1.68421,0.139668 1.83216,0.977707 0.77139,4.369549 -2.13519,6.827374 -3.5055,11.889729 -4.25817,15.730931 -0.49845,2.543866 -0.83913,3.248988 -1.8051,3.736097 -0.72322,0.364696 -1.33899,0.422881 -2.08813,0.19731 z"
         id="path404548" /><path
         style="display:inline;fill:#eec744;fill-opacity:1;stroke-width:0.0398351"
         d="m 148.80703,76.083489 c -2.24293,-0.735539 -3.85777,-2.624407 -4.54441,-5.31555 -0.33755,-1.322986 -0.48918,-7.97037 -0.23164,-10.155407 0.35654,-3.025098 1.09738,-4.923523 2.44863,-6.274779 1.74172,-1.741718 4.4463,-2.471756 6.29381,-1.698871 3.10746,1.299975 4.72306,6.338004 3.14144,9.796187 -0.95068,2.07863 -2.57325,2.92077 -6.08522,3.158315 -2.83457,0.191725 -2.93148,0.323895 -2.33111,3.179268 0.59217,2.816355 1.15887,4.139261 2.14347,5.003755 0.5241,0.460166 0.66551,0.507627 1.32391,0.444363 1.53212,-0.147217 1.98991,-0.857703 2.28515,-3.546507 0.21605,-1.967622 0.22925,-2.01096 0.76295,-2.504025 0.98216,-0.907388 2.27378,-0.82061 2.75583,0.185153 0.55766,1.163516 -0.69167,4.40795 -2.32356,6.034164 -1.18848,1.184347 -2.39427,1.762115 -3.85345,1.846435 -0.70222,0.04058 -1.37126,-0.01656 -1.7858,-0.152501 z m 2.93462,-12.490399 c 1.56949,-1.159931 1.78771,-4.938427 0.44259,-7.663159 -0.38433,-0.778513 -1.02024,-1.479132 -1.51783,-1.672299 -0.53223,-0.206616 -1.35698,0.101949 -1.75081,0.655031 -0.69884,0.981433 -1.25501,3.36789 -1.48357,6.365785 -0.0528,0.692161 -0.13376,1.514986 -0.17999,1.828499 l -0.084,0.570023 1.22962,0.163801 c 1.62427,0.216374 2.83774,0.126495 3.34403,-0.247681 z"
         id="path404964" /><path
         style="display:inline;fill:#5daf9b;fill-opacity:1;stroke-width:0.0398351"
         d="m 160.94048,76.922007 c -0.28734,-0.08529 -0.57102,-0.32117 -0.69619,-0.578872 -0.26137,-0.538141 -0.43508,-4.866732 -0.45935,-11.446573 -0.0117,-3.172936 -0.0933,-5.286269 -0.24899,-6.449682 -0.29464,-2.201569 -0.29544,-3.436646 -0.003,-4.002955 0.25981,-0.502423 1.63636,-1.266907 2.28123,-1.266907 0.72095,0 1.10528,0.406289 1.10528,1.168432 v 0.678661 l 0.66856,-0.125219 c 0.36771,-0.06887 1.19806,-0.272098 1.84523,-0.451617 2.88744,-0.800963 4.52198,-0.100741 5.90398,2.529207 1.44638,2.752466 1.44332,5.281419 -0.007,5.887453 -0.56493,0.236043 -1.29237,0.289163 -1.71884,0.125516 -0.43036,-0.165148 -0.81921,-1.163445 -1.09536,-2.812167 -0.43146,-2.576004 -1.20955,-3.696769 -2.56645,-3.696769 -1.27869,0 -2.24924,1.528207 -2.57055,4.047512 -0.14091,1.10487 -0.14243,2.383289 -0.006,5.348517 0.24931,5.432613 0.23132,8.451649 -0.0561,9.419564 -0.38728,1.304099 -1.31715,1.940319 -2.37636,1.625899 z"
         id="path405656" /><path
         style="display:inline;fill:#c8528e;fill-opacity:1;stroke:none;stroke-width:0.176389"
         d="m 121.90237,46.561648 c -2.85573,0.54482 -3.56499,4.60148 0,3.93283 0.93698,-0.17577 2.35021,-0.66093 2.81658,-1.56505 0.78969,-1.53075 -1.63283,-2.59361 -2.81658,-2.36778 m -0.35207,6.03412 c -1.81434,0.70275 -1.12307,3.13651 -1.26541,4.63156 -0.43321,4.55237 -0.55704,9.74161 -0.0203,14.2875 0.20708,1.75436 -0.124,5.34229 2.69611,4.47111 2.2523,-0.69586 1.28023,-3.60486 1.23736,-5.35305 -0.12012,-4.88562 -0.005,-9.75965 -0.003,-14.64028 7e-4,-1.75735 0.0252,-4.43124 -2.64513,-3.39684"
         id="path402855-7" /><path
         d="m 36.682228,87.948101 q -0.992257,0 -1.629078,-0.636821 -0.636822,-0.636822 -0.636822,-1.658698 0,-0.651631 0.296196,-1.155164 0.296196,-0.503534 0.79973,-0.78492 0.518343,-0.281386 1.169974,-0.281386 0.888588,0 1.510599,0.414674 0.207338,0.133289 0.207338,0.370245 0,0.236957 -0.148098,0.370245 -0.148098,0.133289 -0.340626,0.133289 -0.133288,0 -0.236957,-0.05924 -0.547962,-0.370245 -1.021876,-0.325815 -0.577582,0.05924 -0.903398,0.399864 -0.325815,0.325816 -0.325815,0.933018 0,0.636821 0.340625,1.007066 0.355435,0.355435 0.992257,0.355435 0.562772,0 1.125545,-0.429484 0.118478,-0.103668 0.311005,-0.103668 0.222147,0 0.325816,0.177717 0.118478,0.162908 0.118478,0.311006 0,0.207337 -0.192527,0.385055 -0.370245,0.325815 -0.814539,0.444294 -0.444294,0.133288 -0.947827,0.133288 z"
         style="font-size:14.8098px;line-height:1.25;font-family:Dongle;-inkscape-font-specification:Dongle;letter-spacing:0.944867px;word-spacing:-0.414228px;fill:#959693;stroke-width:0.27768"
         id="path194" /><path
         d="m 42.455085,87.948101 q -1.110735,0 -1.732746,-0.636821 -0.622012,-0.636822 -0.622012,-1.717937 0,-0.947827 0.622012,-1.555029 0.636821,-0.607202 1.629078,-0.607202 0.962637,0 1.540219,0.562772 0.577582,0.547963 0.577582,1.362502 0,0.325816 -0.177718,0.488723 -0.162907,0.162908 -0.429484,0.162908 h -2.576905 q -0.148098,0 -0.103669,0.162908 0.118479,0.414674 0.473914,0.651631 0.370245,0.222147 0.829349,0.222147 0.340625,0 0.651631,-0.08886 0.325816,-0.08886 0.562772,-0.266576 0.07405,-0.05924 0.192528,-0.05924 0.162908,0 0.296196,0.148098 0.133288,0.133288 0.133288,0.325815 0,0.08886 -0.02962,0.177718 -0.02962,0.08886 -0.133288,0.177718 -0.385055,0.281386 -0.829349,0.385054 -0.429484,0.103669 -0.873778,0.103669 z m 0.858969,-2.710193 q 0.08886,0 0.08886,-0.08886 0,-0.340626 -0.311005,-0.592392 -0.296196,-0.251767 -0.74049,-0.251767 -0.385055,0 -0.74049,0.207337 -0.340626,0.207338 -0.414675,0.547963 0,0 0,0.01481 -0.01481,0.05924 -0.01481,0.103668 0.01481,0.04443 0.133289,0.04443 z"
         style="font-size:14.8098px;line-height:1.25;font-family:Dongle;-inkscape-font-specification:Dongle;letter-spacing:0.944867px;word-spacing:-0.414228px;fill:#959693;stroke-width:0.27768"
         id="path196" /><path
         d="m 50.019919,87.948101 q -0.192527,0 -0.355435,-0.118478 -0.148098,-0.118479 -0.148098,-0.340626 v -1.866035 q 0,-0.651631 -0.296196,-0.962637 -0.281387,-0.311005 -0.7553,-0.311005 -0.607202,0 -0.888588,0.399864 -0.266577,0.385055 -0.266577,0.858969 v 1.880844 q 0,0.222147 -0.162907,0.340626 -0.148098,0.118478 -0.340626,0.118478 -0.192527,0 -0.355435,-0.118478 -0.148098,-0.118479 -0.148098,-0.340626 v -3.480303 q 0,-0.251766 0.148098,-0.370245 0.162908,-0.133288 0.355435,-0.133288 0.192528,0 0.340626,0.133288 0.162907,0.118479 0.162907,0.370245 0.251767,-0.251766 0.651632,-0.414674 0.399864,-0.162908 0.755299,-0.162908 0.829349,0 1.318073,0.533153 0.488723,0.533153 0.488723,1.569839 v 1.954893 q 0,0.222147 -0.162908,0.340626 -0.162907,0.118478 -0.340625,0.118478 z"
         style="font-size:14.8098px;line-height:1.25;font-family:Dongle;-inkscape-font-specification:Dongle;letter-spacing:0.944867px;word-spacing:-0.414228px;fill:#959693;stroke-width:0.27768"
         id="path198" /><path
         d="m 54.252542,87.948101 q -0.577582,0 -0.947827,-0.355435 Q 52.93447,87.237231 52.93447,86.52636 v -1.880844 q 0,-0.148098 -0.148098,-0.148098 h -0.266576 q -0.192528,0 -0.325816,-0.118479 -0.133288,-0.133288 -0.133288,-0.325815 0,-0.207338 0.133288,-0.340626 0.133288,-0.133288 0.325816,-0.133288 h 0.266576 q 0.148098,0 0.148098,-0.148098 v -1.244023 q 0,-0.207337 0.133288,-0.325816 0.148098,-0.133288 0.355435,-0.133288 0.222147,0 0.355436,0.133288 0.148098,0.118479 0.148098,0.325816 v 1.244023 q 0,0.148098 0.148098,0.148098 h 0.799729 q 0.177717,0 0.311006,0.133288 0.133288,0.133288 0.133288,0.340626 0,0.192527 -0.133288,0.325815 -0.118479,0.118479 -0.325816,0.118479 h -0.784919 q -0.148098,0 -0.148098,0.148098 v 1.747556 q 0,0.622012 0.503533,0.622012 0.148098,0 0.311006,-0.04443 0.162907,-0.04443 0.222147,-0.04443 0.207337,0 0.311005,0.133288 0.118479,0.133288 0.118479,0.311006 0,0.133288 -0.07405,0.266576 -0.07405,0.118479 -0.236957,0.177718 -0.162908,0.05924 -0.414674,0.08886 -0.236957,0.04443 -0.414675,0.04443 z"
         style="font-size:14.8098px;line-height:1.25;font-family:Dongle;-inkscape-font-specification:Dongle;letter-spacing:0.944867px;word-spacing:-0.414228px;fill:#959693;stroke-width:0.27768"
         id="path200" /><path
         d="m 58.085317,85.608153 v 1.880844 q 0,0.222147 -0.162907,0.340626 -0.148098,0.118478 -0.340626,0.118478 -0.192527,0 -0.355435,-0.118478 -0.148098,-0.118479 -0.148098,-0.340626 v -3.480303 q 0,-0.251766 0.148098,-0.370245 0.162908,-0.133288 0.355435,-0.133288 0.192528,0 0.340626,0.133288 0.162907,0.118479 0.162907,0.370245 v 0.05924 q 0.207338,-0.281386 0.533153,-0.459103 0.340626,-0.177718 0.710871,-0.177718 0.177717,0 0.355435,0.04443 0.177717,0.04443 0.266576,0.177718 0.08886,0.133288 0.08886,0.296196 0,0.192527 -0.133288,0.355435 -0.118479,0.148098 -0.355435,0.148098 -0.103669,0 -0.222147,-0.02962 -0.103669,-0.02962 -0.266577,-0.02962 -0.429484,0 -0.71087,0.325816 -0.266577,0.325815 -0.266577,0.888588 z"
         style="font-size:14.8098px;line-height:1.25;font-family:Dongle;-inkscape-font-specification:Dongle;letter-spacing:0.944867px;word-spacing:-0.414228px;fill:#959693;stroke-width:0.27768"
         id="path202" /><path
         d="m 63.502724,87.948101 q -0.651631,0 -1.184784,-0.296196 -0.518343,-0.296196 -0.814539,-0.814539 -0.296196,-0.533153 -0.296196,-1.184784 0,-0.636821 0.296196,-1.140355 0.296196,-0.503533 0.814539,-0.784919 0.533153,-0.296196 1.184784,-0.296196 0.651631,0 1.169974,0.296196 0.518343,0.281386 0.814539,0.784919 0.311006,0.503534 0.311006,1.140355 0,0.651631 -0.311006,1.184784 -0.296196,0.518343 -0.814539,0.814539 -0.518343,0.296196 -1.169974,0.296196 z m 0,-0.918208 q 0.577582,0 0.933017,-0.370245 0.355435,-0.385054 0.355435,-1.007066 0,-0.592392 -0.355435,-0.947827 -0.355435,-0.355435 -0.933017,-0.355435 -0.592392,0 -0.947827,0.355435 -0.340626,0.355435 -0.340626,0.947827 0,0.622012 0.340626,1.007066 0.355435,0.370245 0.947827,0.370245 z"
         style="font-size:14.8098px;line-height:1.25;font-family:Dongle;-inkscape-font-specification:Dongle;letter-spacing:0.944867px;word-spacing:-0.414228px;fill:#959693;stroke-width:0.27768"
         id="path204" /><path
         d="m 73.182818,87.948101 q -1.110735,0 -1.732746,-0.636821 -0.622012,-0.636822 -0.622012,-1.717937 0,-0.947827 0.622012,-1.555029 0.636821,-0.607202 1.629078,-0.607202 0.962637,0 1.540219,0.562772 0.577582,0.547963 0.577582,1.362502 0,0.325816 -0.177717,0.488723 -0.162908,0.162908 -0.429485,0.162908 h -2.576905 q -0.148098,0 -0.103668,0.162908 0.118478,0.414674 0.473913,0.651631 0.370245,0.222147 0.829349,0.222147 0.340625,0 0.651631,-0.08886 0.325816,-0.08886 0.562773,-0.266576 0.07405,-0.05924 0.192527,-0.05924 0.162908,0 0.296196,0.148098 0.133288,0.133288 0.133288,0.325815 0,0.08886 -0.02962,0.177718 -0.02962,0.08886 -0.133289,0.177718 -0.385054,0.281386 -0.829348,0.385054 -0.429485,0.103669 -0.873779,0.103669 z m 0.858969,-2.710193 q 0.08886,0 0.08886,-0.08886 0,-0.340626 -0.311006,-0.592392 -0.296196,-0.251767 -0.74049,-0.251767 -0.385055,0 -0.74049,0.207337 -0.340626,0.207338 -0.414675,0.547963 0,0 0,0.01481 -0.01481,0.05924 -0.01481,0.103668 0.01481,0.04443 0.133288,0.04443 z"
         style="font-size:14.8098px;line-height:1.25;font-family:Dongle;-inkscape-font-specification:Dongle;letter-spacing:0.944867px;word-spacing:-0.414228px;fill:#959693;stroke-width:0.27768"
         id="path206" /><path
         d="m 79.088931,87.948101 q -0.636821,0 -1.140355,-0.296196 -0.503533,-0.296196 -0.784919,-0.814539 -0.281386,-0.533153 -0.281386,-1.184784 0,-0.636821 0.281386,-1.140355 0.281386,-0.503533 0.784919,-0.784919 0.503534,-0.296196 1.140355,-0.296196 0.414674,0 0.74049,0.133288 0.325816,0.133288 0.562772,0.370245 v -2.073372 q 0,-0.251766 0.148098,-0.370245 0.162908,-0.133288 0.355436,-0.133288 0.192527,0 0.340625,0.133288 0.162908,0.118479 0.162908,0.370245 v 5.627724 q 0,0.222147 -0.162908,0.340626 -0.148098,0.118478 -0.340625,0.118478 -0.192528,0 -0.355436,-0.118478 -0.148098,-0.118479 -0.148098,-0.340626 v -0.05924 q -0.236956,0.236957 -0.562772,0.370245 -0.325816,0.148098 -0.74049,0.148099 z m 0.08886,-0.918208 q 0.562772,0 0.888588,-0.370245 0.325815,-0.385054 0.325815,-1.007066 0,-0.592392 -0.325815,-0.947827 -0.325816,-0.355435 -0.888588,-0.355435 -0.577582,0 -0.933018,0.355435 -0.355435,0.355435 -0.355435,0.947827 0,0.622012 0.355435,1.007066 0.355436,0.370245 0.933018,0.370245 z"
         style="font-size:14.8098px;line-height:1.25;font-family:Dongle;-inkscape-font-specification:Dongle;letter-spacing:0.944867px;word-spacing:-0.414228px;fill:#959693;stroke-width:0.27768"
         id="path208" /><path
         d="m 86.52047,83.919835 q 0,-0.207337 0.133288,-0.340625 0.148098,-0.148098 0.370245,-0.148098 0.207338,0 0.355436,0.148098 0.148098,0.133288 0.148098,0.340625 v 2.088182 q 0,0.666441 -0.296196,1.095925 -0.296196,0.429485 -0.77011,0.636822 -0.473914,0.207337 -1.007066,0.207337 -0.533153,0 -1.007067,-0.207337 -0.473913,-0.207337 -0.770109,-0.636822 -0.296196,-0.429484 -0.296196,-1.095925 v -2.088182 q 0,-0.207337 0.133288,-0.340625 0.148098,-0.148098 0.370245,-0.148098 0.207337,0 0.355435,0.148098 0.148098,0.133288 0.148098,0.340625 v 2.088182 q 0,0.547963 0.325816,0.78492 0.325815,0.236956 0.74049,0.236956 0.429484,0 0.74049,-0.236956 0.325815,-0.236957 0.325815,-0.78492 z"
         style="font-size:14.8098px;line-height:1.25;font-family:Dongle;-inkscape-font-specification:Dongle;letter-spacing:0.944867px;word-spacing:-0.414228px;fill:#959693;stroke-width:0.27768"
         id="path210" /><path
         d="m 91.552822,87.948101 q -0.992257,0 -1.629078,-0.636821 -0.636822,-0.636822 -0.636822,-1.658698 0,-0.651631 0.296196,-1.155164 0.296196,-0.503534 0.79973,-0.78492 0.518343,-0.281386 1.169974,-0.281386 0.888588,0 1.5106,0.414674 0.207337,0.133289 0.207337,0.370245 0,0.236957 -0.148098,0.370245 -0.148098,0.133289 -0.340626,0.133289 -0.133288,0 -0.236956,-0.05924 -0.547963,-0.370245 -1.021877,-0.325815 -0.577582,0.05924 -0.903398,0.399864 -0.325815,0.325816 -0.325815,0.933018 0,0.636821 0.340625,1.007066 0.355435,0.355435 0.992257,0.355435 0.562772,0 1.125545,-0.429484 0.118478,-0.103668 0.311006,-0.103668 0.222147,0 0.325815,0.177717 0.118479,0.162908 0.118479,0.311006 0,0.207337 -0.192528,0.385055 -0.370245,0.325815 -0.814539,0.444294 -0.444294,0.133288 -0.947827,0.133288 z"
         style="font-size:14.8098px;line-height:1.25;font-family:Dongle;-inkscape-font-specification:Dongle;letter-spacing:0.944867px;word-spacing:-0.414228px;fill:#959693;stroke-width:0.27768"
         id="path212" /><path
         d="m 97.177581,87.948101 q -0.636822,0 -1.140355,-0.296196 -0.503533,-0.296196 -0.784919,-0.814539 -0.281386,-0.533153 -0.281386,-1.184784 0,-0.636821 0.281386,-1.140355 0.281386,-0.503533 0.784919,-0.784919 0.503533,-0.296196 1.140355,-0.296196 0.414674,0 0.74049,0.148098 0.325815,0.133288 0.562772,0.355435 0.02962,-0.207337 0.177718,-0.311006 0.148098,-0.118478 0.325815,-0.118478 0.192528,0 0.340626,0.133288 0.162908,0.118479 0.162908,0.370245 v 3.480303 q 0,0.222147 -0.162908,0.340626 -0.148098,0.118478 -0.340626,0.118478 -0.192527,0 -0.355435,-0.118478 -0.148098,-0.118479 -0.148098,-0.340626 v -0.05924 q -0.236957,0.236957 -0.562772,0.370245 -0.325816,0.148098 -0.74049,0.148099 z m 0.08886,-0.918208 q 0.562772,0 0.888588,-0.370245 0.325815,-0.385054 0.325815,-1.007066 0,-0.592392 -0.325815,-0.947827 -0.325816,-0.355435 -0.888588,-0.355435 -0.577583,0 -0.933018,0.355435 -0.355435,0.355435 -0.355435,0.947827 0,0.622012 0.355435,1.007066 0.355435,0.370245 0.933018,0.370245 z"
         style="font-size:14.8098px;line-height:1.25;font-family:Dongle;-inkscape-font-specification:Dongle;letter-spacing:0.944867px;word-spacing:-0.414228px;fill:#959693;stroke-width:0.27768"
         id="path214" /><path
         d="m 103.5132,87.948101 q -0.99226,0 -1.62908,-0.636821 -0.63682,-0.636822 -0.63682,-1.658698 0,-0.651631 0.2962,-1.155164 0.29619,-0.503534 0.79972,-0.78492 0.51835,-0.281386 1.16998,-0.281386 0.88859,0 1.5106,0.414674 0.20734,0.133289 0.20734,0.370245 0,0.236957 -0.1481,0.370245 -0.1481,0.133289 -0.34063,0.133289 -0.13329,0 -0.23695,-0.05924 -0.54797,-0.370245 -1.02188,-0.325815 -0.57758,0.05924 -0.9034,0.399864 -0.32581,0.325816 -0.32581,0.933018 0,0.636821 0.34062,1.007066 0.35544,0.355435 0.99226,0.355435 0.56277,0 1.12554,-0.429484 0.11848,-0.103668 0.31101,-0.103668 0.22215,0 0.32581,0.177717 0.11848,0.162908 0.11848,0.311006 0,0.207337 -0.19253,0.385055 -0.37024,0.325815 -0.81453,0.444294 -0.4443,0.133288 -0.94783,0.133288 z"
         style="font-size:14.8098px;line-height:1.25;font-family:Dongle;-inkscape-font-specification:Dongle;letter-spacing:0.944867px;word-spacing:-0.414228px;fill:#959693;stroke-width:0.27768"
         id="path216" /><path
         d="m 107.74584,87.948101 q -0.19253,0 -0.35544,-0.118478 -0.1481,-0.118479 -0.1481,-0.340626 v -3.554352 q 0,-0.251766 0.1481,-0.370245 0.16291,-0.133288 0.35544,-0.133288 0.19252,0 0.34062,0.133288 0.16291,0.118479 0.16291,0.370245 v 3.554352 q 0,0.222147 -0.16291,0.340626 -0.1481,0.118478 -0.34062,0.118478 z m 0.0148,-5.331528 q -0.28139,0 -0.48873,-0.177718 -0.19252,-0.192527 -0.19252,-0.459103 0,-0.251767 0.19252,-0.429485 0.20734,-0.192527 0.48873,-0.192527 0.26657,0 0.4591,0.192527 0.19253,0.177718 0.19253,0.429485 0,0.266576 -0.19253,0.459103 -0.19253,0.177718 -0.4591,0.177718 z"
         style="font-size:14.8098px;line-height:1.25;font-family:Dongle;-inkscape-font-specification:Dongle;letter-spacing:0.944867px;word-spacing:-0.414228px;fill:#959693;stroke-width:0.27768"
         id="path218" /><path
         d="m 112.39314,87.948101 q -0.65163,0 -1.18478,-0.296196 -0.51834,-0.296196 -0.81454,-0.814539 -0.29619,-0.533153 -0.29619,-1.184784 0,-0.636821 0.29619,-1.140355 0.2962,-0.503533 0.81454,-0.784919 0.53315,-0.296196 1.18478,-0.296196 0.65164,0 1.16998,0.296196 0.51834,0.281386 0.81454,0.784919 0.311,0.503534 0.311,1.140355 0,0.651631 -0.311,1.184784 -0.2962,0.518343 -0.81454,0.814539 -0.51834,0.296196 -1.16998,0.296196 z m 0,-0.918208 q 0.57759,0 0.93302,-0.370245 0.35544,-0.385054 0.35544,-1.007066 0,-0.592392 -0.35544,-0.947827 -0.35543,-0.355435 -0.93302,-0.355435 -0.59239,0 -0.94782,0.355435 -0.34063,0.355435 -0.34063,0.947827 0,0.622012 0.34063,1.007066 0.35543,0.370245 0.94782,0.370245 z"
         style="font-size:14.8098px;line-height:1.25;font-family:Dongle;-inkscape-font-specification:Dongle;letter-spacing:0.944867px;word-spacing:-0.414228px;fill:#959693;stroke-width:0.27768"
         id="path220" /><path
         d="m 120.23935,87.948101 q -0.19252,0 -0.35543,-0.118478 -0.1481,-0.118479 -0.1481,-0.340626 v -1.866035 q 0,-0.651631 -0.29619,-0.962637 -0.28139,-0.311005 -0.7553,-0.311005 -0.60721,0 -0.88859,0.399864 -0.26658,0.385055 -0.26658,0.858969 v 1.880844 q 0,0.222147 -0.16291,0.340626 -0.14809,0.118478 -0.34062,0.118478 -0.19253,0 -0.35544,-0.118478 -0.1481,-0.118479 -0.1481,-0.340626 v -3.480303 q 0,-0.251766 0.1481,-0.370245 0.16291,-0.133288 0.35544,-0.133288 0.19253,0 0.34062,0.133288 0.16291,0.118479 0.16291,0.370245 0.25177,-0.251766 0.65163,-0.414674 0.39987,-0.162908 0.7553,-0.162908 0.82935,0 1.31807,0.533153 0.48873,0.533153 0.48873,1.569839 v 1.954893 q 0,0.222147 -0.16291,0.340626 -0.16291,0.118478 -0.34063,0.118478 z"
         style="font-size:14.8098px;line-height:1.25;font-family:Dongle;-inkscape-font-specification:Dongle;letter-spacing:0.944867px;word-spacing:-0.414228px;fill:#959693;stroke-width:0.27768"
         id="path222" /><path
         d="m 124.70893,87.948101 q -0.63682,0 -1.14035,-0.296196 -0.50353,-0.296196 -0.78492,-0.814539 -0.28139,-0.533153 -0.28139,-1.184784 0,-0.636821 0.28139,-1.140355 0.28139,-0.503533 0.78492,-0.784919 0.50353,-0.296196 1.14035,-0.296196 0.41468,0 0.74049,0.148098 0.32582,0.133288 0.56278,0.355435 0.0296,-0.207337 0.17771,-0.311006 0.1481,-0.118478 0.32582,-0.118478 0.19253,0 0.34062,0.133288 0.16291,0.118479 0.16291,0.370245 v 3.480303 q 0,0.222147 -0.16291,0.340626 -0.14809,0.118478 -0.34062,0.118478 -0.19253,0 -0.35544,-0.118478 -0.14809,-0.118479 -0.14809,-0.340626 v -0.05924 q -0.23696,0.236957 -0.56278,0.370245 -0.32581,0.148098 -0.74049,0.148099 z m 0.0889,-0.918208 q 0.56278,0 0.88859,-0.370245 0.32582,-0.385054 0.32582,-1.007066 0,-0.592392 -0.32582,-0.947827 -0.32581,-0.355435 -0.88859,-0.355435 -0.57758,0 -0.93301,0.355435 -0.35544,0.355435 -0.35544,0.947827 0,0.622012 0.35544,1.007066 0.35543,0.370245 0.93301,0.370245 z"
         style="font-size:14.8098px;line-height:1.25;font-family:Dongle;-inkscape-font-specification:Dongle;letter-spacing:0.944867px;word-spacing:-0.414228px;fill:#959693;stroke-width:0.27768"
         id="path224" /><path
         d="m 129.57838,87.948101 q -0.19253,0 -0.35544,-0.118478 -0.1481,-0.118479 -0.1481,-0.340626 v -5.627724 q 0,-0.251766 0.1481,-0.370245 0.16291,-0.133288 0.35544,-0.133288 0.19253,0 0.34062,0.133288 0.16291,0.118479 0.16291,0.370245 v 5.627724 q 0,0.222147 -0.16291,0.340626 -0.14809,0.118478 -0.34062,0.118478 z"
         style="font-size:14.8098px;line-height:1.25;font-family:Dongle;-inkscape-font-specification:Dongle;letter-spacing:0.944867px;word-spacing:-0.414228px;fill:#959693;stroke-width:0.27768"
         id="path226" /><path
         d="m 136.2521,87.948101 q -0.19253,0 -0.35544,-0.118478 -0.14809,-0.118479 -0.14809,-0.340626 v -3.554352 q 0,-0.251766 0.14809,-0.370245 0.16291,-0.133288 0.35544,-0.133288 0.19253,0 0.34063,0.133288 0.1629,0.118479 0.1629,0.370245 v 3.554352 q 0,0.222147 -0.1629,0.340626 -0.1481,0.118478 -0.34063,0.118478 z m 0.0148,-5.331528 q -0.28139,0 -0.48872,-0.177718 -0.19253,-0.192527 -0.19253,-0.459103 0,-0.251767 0.19253,-0.429485 0.20733,-0.192527 0.48872,-0.192527 0.26658,0 0.4591,0.192527 0.19253,0.177718 0.19253,0.429485 0,0.266576 -0.19253,0.459103 -0.19252,0.177718 -0.4591,0.177718 z"
         style="font-size:14.8098px;line-height:1.25;font-family:Dongle;-inkscape-font-specification:Dongle;letter-spacing:0.944867px;word-spacing:-0.414228px;fill:#959693;stroke-width:0.27768"
         id="path228" /><path
         d="m 142.61735,87.948101 q -0.19252,0 -0.35543,-0.118478 -0.1481,-0.118479 -0.1481,-0.340626 v -1.866035 q 0,-0.651631 -0.2962,-0.962637 -0.28138,-0.311005 -0.7553,-0.311005 -0.6072,0 -0.88858,0.399864 -0.26658,0.385055 -0.26658,0.858969 v 1.880844 q 0,0.222147 -0.16291,0.340626 -0.1481,0.118478 -0.34062,0.118478 -0.19253,0 -0.35544,-0.118478 -0.1481,-0.118479 -0.1481,-0.340626 v -3.480303 q 0,-0.251766 0.1481,-0.370245 0.16291,-0.133288 0.35544,-0.133288 0.19252,0 0.34062,0.133288 0.16291,0.118479 0.16291,0.370245 0.25177,-0.251766 0.65163,-0.414674 0.39987,-0.162908 0.7553,-0.162908 0.82935,0 1.31807,0.533153 0.48873,0.533153 0.48873,1.569839 v 1.954893 q 0,0.222147 -0.16291,0.340626 -0.16291,0.118478 -0.34063,0.118478 z"
         style="font-size:14.8098px;line-height:1.25;font-family:Dongle;-inkscape-font-specification:Dongle;letter-spacing:0.944867px;word-spacing:-0.414228px;fill:#959693;stroke-width:0.27768"
         id="path230" /><path
         d="m 146.09468,87.948101 q -0.22215,0 -0.35544,-0.133288 -0.13329,-0.133288 -0.13329,-0.340626 v -2.828671 q 0,-0.148098 -0.1481,-0.148098 h -0.34062 q -0.19253,0 -0.32582,-0.118479 -0.13329,-0.133288 -0.13329,-0.325815 0,-0.207338 0.13329,-0.340626 0.13329,-0.133288 0.32582,-0.133288 h 0.34062 q 0.1481,0 0.1481,-0.148098 v -0.385055 q 0,-0.74049 0.38506,-1.169974 0.39986,-0.444294 1.12554,-0.444294 0.16291,0 0.32582,0.04443 0.17771,0.02962 0.26657,0.05924 0.28139,0.103668 0.28139,0.414674 0,0.236957 -0.1481,0.370245 -0.13329,0.118478 -0.32581,0.118478 -0.10367,0 -0.19253,-0.02962 -0.0889,-0.02962 -0.25177,-0.02962 -0.25176,0 -0.35543,0.177718 -0.10367,0.177717 -0.10367,0.518343 v 0.355435 q 0,0.148098 0.1481,0.148098 h 0.63682 q 0.17772,0 0.311,0.133288 0.13329,0.133288 0.13329,0.340626 0,0.192527 -0.13329,0.325815 -0.11847,0.118479 -0.32581,0.118479 h -0.62201 q -0.1481,0 -0.1481,0.148098 v 2.828671 q 0,0.207338 -0.1481,0.340626 -0.1481,0.133288 -0.37024,0.133288 z"
         style="font-size:14.8098px;line-height:1.25;font-family:Dongle;-inkscape-font-specification:Dongle;letter-spacing:0.944867px;word-spacing:-0.414228px;fill:#959693;stroke-width:0.27768"
         id="path232" /><path
         d="m 151.51208,87.948101 q -0.63682,0 -1.14035,-0.296196 -0.50354,-0.296196 -0.78492,-0.814539 -0.28139,-0.533153 -0.28139,-1.184784 0,-0.636821 0.28139,-1.140355 0.28138,-0.503533 0.78492,-0.784919 0.50353,-0.296196 1.14035,-0.296196 0.41467,0 0.74049,0.148098 0.32582,0.133288 0.56277,0.355435 0.0296,-0.207337 0.17772,-0.311006 0.1481,-0.118478 0.32582,-0.118478 0.19252,0 0.34062,0.133288 0.16291,0.118479 0.16291,0.370245 v 3.480303 q 0,0.222147 -0.16291,0.340626 -0.1481,0.118478 -0.34062,0.118478 -0.19253,0 -0.35544,-0.118478 -0.1481,-0.118479 -0.1481,-0.340626 v -0.05924 q -0.23695,0.236957 -0.56277,0.370245 -0.32582,0.148098 -0.74049,0.148099 z m 0.0889,-0.918208 q 0.56277,0 0.88859,-0.370245 0.32581,-0.385054 0.32581,-1.007066 0,-0.592392 -0.32581,-0.947827 -0.32582,-0.355435 -0.88859,-0.355435 -0.57758,0 -0.93302,0.355435 -0.35543,0.355435 -0.35543,0.947827 0,0.622012 0.35543,1.007066 0.35544,0.370245 0.93302,0.370245 z"
         style="font-size:14.8098px;line-height:1.25;font-family:Dongle;-inkscape-font-specification:Dongle;letter-spacing:0.944867px;word-spacing:-0.414228px;fill:#959693;stroke-width:0.27768"
         id="path234" /><path
         d="m 159.59525,87.948101 q -0.19253,0 -0.35543,-0.118478 -0.1481,-0.118479 -0.1481,-0.340626 v -1.866035 q 0,-0.651631 -0.2962,-0.962637 -0.28138,-0.311005 -0.7553,-0.311005 -0.6072,0 -0.88859,0.399864 -0.26657,0.385055 -0.26657,0.858969 v 1.880844 q 0,0.222147 -0.16291,0.340626 -0.1481,0.118478 -0.34063,0.118478 -0.19252,0 -0.35543,-0.118478 -0.1481,-0.118479 -0.1481,-0.340626 v -3.480303 q 0,-0.251766 0.1481,-0.370245 0.16291,-0.133288 0.35543,-0.133288 0.19253,0 0.34063,0.133288 0.16291,0.118479 0.16291,0.370245 0.25176,-0.251766 0.65163,-0.414674 0.39986,-0.162908 0.7553,-0.162908 0.82935,0 1.31807,0.533153 0.48872,0.533153 0.48872,1.569839 v 1.954893 q 0,0.222147 -0.1629,0.340626 -0.16291,0.118478 -0.34063,0.118478 z"
         style="font-size:14.8098px;line-height:1.25;font-family:Dongle;-inkscape-font-specification:Dongle;letter-spacing:0.944867px;word-spacing:-0.414228px;fill:#959693;stroke-width:0.27768"
         id="path236" /><path
         d="m 163.82788,87.948101 q -0.57758,0 -0.94783,-0.355435 -0.37024,-0.355435 -0.37024,-1.066306 v -1.880844 q 0,-0.148098 -0.1481,-0.148098 h -0.26658 q -0.19252,0 -0.32581,-0.118479 -0.13329,-0.133288 -0.13329,-0.325815 0,-0.207338 0.13329,-0.340626 0.13329,-0.133288 0.32581,-0.133288 h 0.26658 q 0.1481,0 0.1481,-0.148098 v -1.244023 q 0,-0.207337 0.13329,-0.325816 0.14809,-0.133288 0.35543,-0.133288 0.22215,0 0.35544,0.133288 0.1481,0.118479 0.1481,0.325816 v 1.244023 q 0,0.148098 0.14809,0.148098 h 0.79973 q 0.17772,0 0.31101,0.133288 0.13329,0.133288 0.13329,0.340626 0,0.192527 -0.13329,0.325815 -0.11848,0.118479 -0.32582,0.118479 h -0.78492 q -0.14809,0 -0.14809,0.148098 v 1.747556 q 0,0.622012 0.50353,0.622012 0.1481,0 0.311,-0.04443 0.16291,-0.04443 0.22215,-0.04443 0.20734,0 0.31101,0.133288 0.11848,0.133288 0.11848,0.311006 0,0.133288 -0.074,0.266576 -0.074,0.118479 -0.23696,0.177718 -0.16291,0.05924 -0.41467,0.08886 -0.23696,0.04443 -0.41468,0.04443 z"
         style="font-size:14.8098px;line-height:1.25;font-family:Dongle;-inkscape-font-specification:Dongle;letter-spacing:0.944867px;word-spacing:-0.414228px;fill:#959693;stroke-width:0.27768"
         id="path238" /><path
         d="m 167.17192,87.948101 q -0.19252,0 -0.35543,-0.118478 -0.1481,-0.118479 -0.1481,-0.340626 v -3.554352 q 0,-0.251766 0.1481,-0.370245 0.16291,-0.133288 0.35543,-0.133288 0.19253,0 0.34063,0.133288 0.16291,0.118479 0.16291,0.370245 v 3.554352 q 0,0.222147 -0.16291,0.340626 -0.1481,0.118478 -0.34063,0.118478 z m 0.0148,-5.331528 q -0.28138,0 -0.48872,-0.177718 -0.19253,-0.192527 -0.19253,-0.459103 0,-0.251767 0.19253,-0.429485 0.20734,-0.192527 0.48872,-0.192527 0.26658,0 0.45911,0.192527 0.19252,0.177718 0.19252,0.429485 0,0.266576 -0.19252,0.459103 -0.19253,0.177718 -0.45911,0.177718 z"
         style="font-size:14.8098px;line-height:1.25;font-family:Dongle;-inkscape-font-specification:Dongle;letter-spacing:0.944867px;word-spacing:-0.414228px;fill:#959693;stroke-width:0.27768"
         id="path240" /><path
         d="m 170.32345,87.948101 q -0.19253,0 -0.35544,-0.118478 -0.14809,-0.118479 -0.14809,-0.340626 v -5.627724 q 0,-0.251766 0.14809,-0.370245 0.16291,-0.133288 0.35544,-0.133288 0.19253,0 0.34062,0.133288 0.16291,0.118479 0.16291,0.370245 v 5.627724 q 0,0.222147 -0.16291,0.340626 -0.14809,0.118478 -0.34062,0.118478 z"
         style="font-size:14.8098px;line-height:1.25;font-family:Dongle;-inkscape-font-specification:Dongle;letter-spacing:0.944867px;word-spacing:-0.414228px;fill:#959693;stroke-width:0.27768"
         id="path242" /></g></g></svg>
